<?xml version="1.0" encoding="utf-8"?>
<svg width="48" height="48" viewBox="0 0 24 24" xmlns="http://www.w3.org/2000/svg">
  <path d="M 0.039 2.705 L 0.039 21.37 C 0.039 22.836 1.225 24.036 2.705 24.036 L 21.37 24.036 C 22.836 24.036 24.036 22.836 24.036 21.37 L 24.036 2.705 C 24.036 1.239 22.836 0.039 21.37 0.039 L 2.705 0.039 C 1.225 0.039 0.039 1.239 0.039 2.705 Z M 16.037 8.038 C 16.037 10.251 14.251 12.037 12.037 12.037 C 9.824 12.037 8.038 10.251 8.038 8.038 C 8.038 5.825 9.824 4.038 12.037 4.038 C 14.251 4.038 16.037 5.825 16.037 8.038 Z M 4.038 18.703 C 4.038 16.037 9.371 14.571 12.037 14.571 C 14.703 14.571 20.036 16.037 20.036 18.703 L 20.036 20.036 L 4.038 20.036 L 4.038 18.703 Z" style="fill: rgb(13, 49, 64);"/>
  <path d="M0 0h24v24H0z" fill="none"/>
</svg>