<?xml version="1.0" encoding="utf-8"?>
<svg width="48" height="48" viewBox="0 0 24 24" xmlns="http://www.w3.org/2000/svg">
  <path d="M0 0h24v24H0z" fill="none"/>
  <path d="M 21.129 13.171 C 21.177 12.789 21.215 12.407 21.215 12 C 21.215 11.593 21.177 11.211 21.129 10.829 L 23.711 8.857 C 23.943 8.679 24.004 8.355 23.857 8.093 L 21.41 3.959 C 21.263 3.695 20.932 3.599 20.663 3.695 L 17.617 4.891 C 16.981 4.413 16.296 4.018 15.549 3.719 L 15.084 0.553 C 15.048 0.265 14.791 0.051 14.485 0.051 L 9.591 0.051 C 9.285 0.051 9.028 0.265 8.992 0.553 L 8.527 3.719 C 7.78 4.018 7.095 4.425 6.459 4.891 L 3.413 3.695 C 3.13 3.587 2.813 3.695 2.666 3.959 L 0.219 8.093 C 0.06 8.355 0.133 8.679 0.366 8.857 L 2.947 10.829 C 2.899 11.211 2.861 11.605 2.861 12 C 2.861 12.395 2.899 12.789 2.947 13.171 L 0.366 15.143 C 0.133 15.321 0.072 15.645 0.219 15.907 L 2.666 20.041 C 2.813 20.305 3.144 20.401 3.413 20.305 L 6.459 19.109 C 7.095 19.587 7.78 19.982 8.527 20.281 L 8.992 23.447 C 9.028 23.734 9.285 23.949 9.591 23.949 L 14.485 23.949 C 14.791 23.949 15.048 23.734 15.084 23.447 L 15.549 20.281 C 16.296 19.982 16.981 19.575 17.617 19.109 L 20.663 20.305 C 20.945 20.413 21.263 20.305 21.41 20.041 L 23.857 15.907 C 24.004 15.645 23.943 15.321 23.711 15.143 L 21.129 13.171 Z M 12.038 16.183 C 9.677 16.183 7.756 14.307 7.756 12 C 7.756 9.693 9.677 7.817 12.038 7.817 C 14.399 7.817 16.32 9.693 16.32 12 C 16.32 14.307 14.399 16.183 12.038 16.183 Z" style="fill: rgb(13, 49, 64);"/>
</svg>