<?xml version="1.0" encoding="utf-8"?>
<svg width="24" height="24" viewBox="0 0 24 24" xmlns="http://www.w3.org/2000/svg">
  <path d="M 21.035 21.687 L 4.948 21.687 C 3.842 21.687 2.948 20.954 2.948 20.058 L 2.938 5.398 L 6.959 8.656 L 21.035 8.656 C 22.141 8.656 23.046 9.389 23.046 10.285 L 23.046 20.058 C 23.046 20.954 22.141 21.687 21.035 21.687 Z" style="stroke: rgb(54, 195, 255); fill: rgb(13, 49, 64);" transform="matrix(-1, 0, 0, -1, 25.984, 27.085)"/>
  <path d="M 18.804 3.324 L 2.804 3.324 C 1.704 3.324 0.814 4.02 0.814 4.871 L 0.804 18.795 L 4.804 15.701 L 18.804 15.701 C 19.904 15.701 20.804 15.005 20.804 14.154 L 20.804 4.871 C 20.804 4.02 19.904 3.324 18.804 3.324 Z" style="stroke: rgb(54, 195, 255); fill: rgb(13, 49, 64);"/>
  <g transform="matrix(1, 0, 0, 1, -1.435876, 4.729623)">
    <path d="M 7 7.07 L 8.43 8.5 C 9.34 7.59 10.61 7.02 12 7.02 C 13.39 7.02 14.66 7.59 15.57 8.5 L 17 7.07 C 15.72 5.79 13.95 5 12 5 C 10.05 5 8.28 5.79 7 7.07 Z" style="stroke: rgb(54, 195, 255); fill: rgb(13, 49, 64);"/>
    <path d="M 12 1 C 8.98 1 6.24 2.23 4.25 4.21 L 5.66 5.62 C 7.28 4 9.53 3 12 3 C 14.47 3 16.72 4 18.34 5.62 L 19.75 4.21 C 17.76 2.23 15.02 1 12 1 Z" style="stroke: rgb(54, 195, 255); fill: rgb(13, 49, 64);"/>
  </g>
</svg>