<?xml version="1.0" encoding="utf-8"?>
<svg width="24" height="24" viewBox="0 0 24 24" xmlns="http://www.w3.org/2000/svg">
  <path d="M 18.883 5.644 L 5.291 5.644 C 4.356 5.644 3.601 6.235 3.601 6.958 L 3.591 18.787 L 6.99 16.158 L 18.883 16.158 C 19.818 16.158 20.583 15.567 20.583 14.844 L 20.583 6.958 C 20.583 6.235 19.818 5.644 18.883 5.644 Z" style="stroke: rgb(54, 195, 255); fill: rgb(13, 49, 64);"/>
  <path d="M 19.803 0.591 Z" style="stroke: black; fill: rgb(65, 109, 127);"/>
  <g transform="matrix(0.849567, 0, 0, 0.849567, 1.688733, 6.837473)">
    <path d="M 7 7.07 L 8.43 8.5 C 9.34 7.59 10.61 7.02 12 7.02 C 13.39 7.02 14.66 7.59 15.57 8.5 L 17 7.07 C 15.72 5.79 13.95 5 12 5 C 10.05 5 8.28 5.79 7 7.07 Z" style="stroke: rgb(54, 195, 255); fill: rgb(13, 49, 64);"/>
    <path d="M 12 1 C 8.98 1 6.24 2.23 4.25 4.21 L 5.66 5.62 C 7.28 4 9.53 3 12 3 C 14.47 3 16.72 4 18.34 5.62 L 19.75 4.21 C 17.76 2.23 15.02 1 12 1 Z" style="stroke: rgb(54, 195, 255); fill: rgb(13, 49, 64);"/>
  </g>
</svg>